<?xml version="1.0" encoding="UTF-8" standalone="no"?>
<!DOCTYPE svg PUBLIC "-//W3C//DTD SVG 1.1//EN"
 "http://www.w3.org/Graphics/SVG/1.1/DTD/svg11.dtd">
<!-- Generated by graphviz version 2.43.0 (0)
 -->
<!-- Title: %3 Pages: 1 -->
<svg width="422pt" height="737pt"
 viewBox="0.00 0.00 421.62 737.00" xmlns="http://www.w3.org/2000/svg" xmlns:xlink="http://www.w3.org/1999/xlink">
<g id="graph0" class="graph" transform="scale(1 1) rotate(0) translate(4 733)">
<title>%3</title>
<polygon fill="white" stroke="transparent" points="-4,4 -4,-733 417.62,-733 417.62,4 -4,4"/>
<!-- A -->
<g id="node1" class="node">
<title>A</title>
<ellipse fill="lightblue" stroke="black" cx="206.81" cy="-711" rx="51.19" ry="18"/>
<text text-anchor="middle" x="206.81" y="-707.3" font-family="Times,serif" font-size="14.00">Початок</text>
</g>
<!-- B1 -->
<g id="node2" class="node">
<title>B1</title>
<polygon fill="lightgray" stroke="black" points="315.81,-656 97.81,-656 97.81,-618 315.81,-618 315.81,-656"/>
<text text-anchor="middle" x="206.81" y="-640.8" font-family="Times,serif" font-size="14.00">Звірка на поточній лексемі</text>
<text text-anchor="middle" x="206.81" y="-625.8" font-family="Times,serif" font-size="14.00">на StartProgram</text>
</g>
<!-- A&#45;&gt;B1 -->
<g id="edge1" class="edge">
<title>A&#45;&gt;B1</title>
<path fill="none" stroke="black" d="M206.81,-692.94C206.81,-684.99 206.81,-675.31 206.81,-666.31"/>
<polygon fill="black" stroke="black" points="210.31,-666.2 206.81,-656.2 203.31,-666.2 210.31,-666.2"/>
</g>
<!-- B2 -->
<g id="node3" class="node">
<title>B2</title>
<polygon fill="lightgray" stroke="black" points="315.81,-581 97.81,-581 97.81,-543 315.81,-543 315.81,-581"/>
<text text-anchor="middle" x="206.81" y="-565.8" font-family="Times,serif" font-size="14.00">Звірка на поточній лексемі</text>
<text text-anchor="middle" x="206.81" y="-550.8" font-family="Times,serif" font-size="14.00">на StartBlock</text>
</g>
<!-- B1&#45;&gt;B2 -->
<g id="edge2" class="edge">
<title>B1&#45;&gt;B2</title>
<path fill="none" stroke="black" d="M206.81,-617.96C206.81,-609.88 206.81,-600.18 206.81,-591.18"/>
<polygon fill="black" stroke="black" points="210.31,-591.09 206.81,-581.09 203.31,-591.09 210.31,-591.09"/>
</g>
<!-- C -->
<g id="node4" class="node">
<title>C</title>
<polygon fill="lightyellow" stroke="black" points="206.81,-492 0.19,-474 206.81,-456 413.43,-474 206.81,-492"/>
<text text-anchor="middle" x="206.81" y="-470.3" font-family="Times,serif" font-size="14.00">Чи є ПЛ лексемою Variable?</text>
</g>
<!-- B2&#45;&gt;C -->
<g id="edge3" class="edge">
<title>B2&#45;&gt;C</title>
<path fill="none" stroke="black" d="M206.81,-542.76C206.81,-530.93 206.81,-515.32 206.81,-502.05"/>
<polygon fill="black" stroke="black" points="210.31,-502.04 206.81,-492.04 203.31,-502.04 210.31,-502.04"/>
</g>
<!-- C&#45;&gt;B2 -->
<g id="edge10" class="edge">
<title>C&#45;&gt;B2</title>
<path fill="none" stroke="black" d="M213.13,-491.49C215.03,-497.26 216.86,-503.83 217.81,-510 218.95,-517.42 218.2,-525.39 216.66,-532.77"/>
<polygon fill="black" stroke="black" points="213.21,-532.13 214.07,-542.69 219.98,-533.89 213.21,-532.13"/>
<text text-anchor="middle" x="226.31" y="-513.8" font-family="Times,serif" font-size="14.00">Ні</text>
</g>
<!-- D1 -->
<g id="node5" class="node">
<title>D1</title>
<polygon fill="lightgray" stroke="black" points="326.31,-405 87.31,-405 87.31,-369 326.31,-369 326.31,-405"/>
<text text-anchor="middle" x="206.81" y="-383.3" font-family="Times,serif" font-size="14.00">Перехід до наступної лексеми</text>
</g>
<!-- C&#45;&gt;D1 -->
<g id="edge4" class="edge">
<title>C&#45;&gt;D1</title>
<path fill="none" stroke="black" d="M206.81,-455.8C206.81,-444.16 206.81,-428.55 206.81,-415.24"/>
<polygon fill="black" stroke="black" points="210.31,-415.18 206.81,-405.18 203.31,-415.18 210.31,-415.18"/>
<text text-anchor="middle" x="220.31" y="-426.8" font-family="Times,serif" font-size="14.00">Так</text>
</g>
<!-- D2 -->
<g id="node6" class="node">
<title>D2</title>
<polygon fill="lightgray" stroke="black" points="289.31,-332 124.31,-332 124.31,-296 289.31,-296 289.31,-332"/>
<text text-anchor="middle" x="206.81" y="-310.3" font-family="Times,serif" font-size="14.00">Декларація змінних</text>
</g>
<!-- D1&#45;&gt;D2 -->
<g id="edge5" class="edge">
<title>D1&#45;&gt;D2</title>
<path fill="none" stroke="black" d="M206.81,-368.81C206.81,-360.79 206.81,-351.05 206.81,-342.07"/>
<polygon fill="black" stroke="black" points="210.31,-342.03 206.81,-332.03 203.31,-342.03 210.31,-342.03"/>
</g>
<!-- D3 -->
<g id="node7" class="node">
<title>D3</title>
<polygon fill="lightgray" stroke="black" points="315.81,-259 97.81,-259 97.81,-221 315.81,-221 315.81,-259"/>
<text text-anchor="middle" x="206.81" y="-243.8" font-family="Times,serif" font-size="14.00">Звірка на поточній лексемі</text>
<text text-anchor="middle" x="206.81" y="-228.8" font-family="Times,serif" font-size="14.00">на Semicolon</text>
</g>
<!-- D2&#45;&gt;D3 -->
<g id="edge6" class="edge">
<title>D2&#45;&gt;D3</title>
<path fill="none" stroke="black" d="M206.81,-295.94C206.81,-287.99 206.81,-278.31 206.81,-269.31"/>
<polygon fill="black" stroke="black" points="210.31,-269.2 206.81,-259.2 203.31,-269.2 210.31,-269.2"/>
</g>
<!-- D4 -->
<g id="node8" class="node">
<title>D4</title>
<polygon fill="lightgray" stroke="black" points="268.31,-184 145.31,-184 145.31,-148 268.31,-148 268.31,-184"/>
<text text-anchor="middle" x="206.81" y="-162.3" font-family="Times,serif" font-size="14.00">Тіло програми</text>
</g>
<!-- D3&#45;&gt;D4 -->
<g id="edge7" class="edge">
<title>D3&#45;&gt;D4</title>
<path fill="none" stroke="black" d="M206.81,-220.83C206.81,-212.89 206.81,-203.41 206.81,-194.63"/>
<polygon fill="black" stroke="black" points="210.31,-194.42 206.81,-184.42 203.31,-194.42 210.31,-194.42"/>
</g>
<!-- D5 -->
<g id="node9" class="node">
<title>D5</title>
<polygon fill="lightgray" stroke="black" points="315.81,-111 97.81,-111 97.81,-73 315.81,-73 315.81,-111"/>
<text text-anchor="middle" x="206.81" y="-95.8" font-family="Times,serif" font-size="14.00">Звірка на поточній лексемі</text>
<text text-anchor="middle" x="206.81" y="-80.8" font-family="Times,serif" font-size="14.00">на EndBlock</text>
</g>
<!-- D4&#45;&gt;D5 -->
<g id="edge8" class="edge">
<title>D4&#45;&gt;D5</title>
<path fill="none" stroke="black" d="M206.81,-147.94C206.81,-139.99 206.81,-130.31 206.81,-121.31"/>
<polygon fill="black" stroke="black" points="210.31,-121.2 206.81,-111.2 203.31,-121.2 210.31,-121.2"/>
</g>
<!-- E -->
<g id="node10" class="node">
<title>E</title>
<ellipse fill="lightblue" stroke="black" cx="206.81" cy="-18" rx="42.49" ry="18"/>
<text text-anchor="middle" x="206.81" y="-14.3" font-family="Times,serif" font-size="14.00">Кінець</text>
</g>
<!-- D5&#45;&gt;E -->
<g id="edge9" class="edge">
<title>D5&#45;&gt;E</title>
<path fill="none" stroke="black" d="M206.81,-72.83C206.81,-64.89 206.81,-55.41 206.81,-46.63"/>
<polygon fill="black" stroke="black" points="210.31,-46.42 206.81,-36.42 203.31,-46.42 210.31,-46.42"/>
</g>
</g>
</svg>
